<?xml version="1.0" encoding="UTF-8" standalone="no"?><svg xmlns="http://www.w3.org/2000/svg" xmlns:xlink="http://www.w3.org/1999/xlink" viewBox="0 0 512 512" width="192" height="192"><g><path d=" M 79.901 0 C 35.773 0 0 35.773 0 79.901 L 0 432.099 C 0 476.227 35.773 512 79.901 512 L 432.099 512 C 476.227 512 512 476.227 512 432.099 L 512 79.901 C 512 35.773 476.227 0 432.099 0 L 79.901 0 L 79.901 0 Z " fill="rgb(0,70,94)"/><path d=" M 172.233 355.407 L 172.233 156.096 C 172.233 131.573 163.833 119.311 147.032 119.311 C 142.419 119.311 138.961 119.645 136.657 120.312 C 131.385 121.306 126.938 121.803 123.315 121.803 C 119.032 121.803 115.409 120.228 112.445 117.078 C 109.482 113.928 108 110.034 108 105.395 C 108 93.798 114.893 88 128.68 88 C 129.009 88 131.471 88.166 136.065 88.497 C 185.302 91.81 208.278 93.467 204.994 93.467 C 208.278 93.467 209.92 93.467 209.92 93.467 L 328.583 89.988 C 330.883 89.988 339.418 89.491 354.189 88.497 C 359.443 88.166 364.201 88 368.465 88 C 385.536 88 394.071 95.621 394.071 110.862 C 394.071 113.513 393.599 121.964 392.657 136.216 C 391.951 146.819 391.597 156.593 391.597 165.539 C 391.597 177.136 391.874 185.253 392.426 189.892 C 393.523 199.505 394.071 206.631 394.071 211.27 C 394.071 223.861 388.142 230.156 376.283 230.156 C 364.424 230.156 358.495 221.334 358.495 203.689 L 358.495 177.719 C 358.495 149.756 352.751 133.278 341.264 128.285 C 332.727 124.622 310.733 122.79 275.282 122.79 C 251.974 122.79 238.185 123.296 233.916 124.309 C 219.8 128.01 212.742 138.108 212.742 154.605 L 212.742 176.97 C 212.742 179.621 212.742 183.265 212.742 187.904 C 212.742 192.543 212.742 195.856 212.742 197.844 L 212.742 204.312 C 212.742 217.565 215.666 225.186 221.514 227.174 C 223.79 227.837 227.69 228.168 233.213 228.168 L 253.189 228.168 C 273.659 228.168 283.894 221.042 283.894 206.79 C 283.894 202.814 283.481 197.678 282.654 191.383 C 281.832 185.088 281.421 179.455 281.421 174.485 C 281.421 161.232 287.266 154.605 298.958 154.605 C 310.654 154.605 316.502 161.729 316.502 175.976 C 316.502 178.627 315.438 188.898 313.311 206.79 C 311.485 222.036 310.573 235.457 310.573 247.054 C 310.573 253.681 311.23 265.443 312.544 282.341 C 312.874 284.992 313.699 290.792 315.018 299.743 C 316.007 307.032 316.502 312.831 316.502 317.138 C 316.502 329.066 310.573 335.03 298.714 335.03 C 287.185 335.03 281.421 328.072 281.421 314.156 C 281.421 310.511 281.832 305.21 282.654 298.252 C 283.481 291.289 283.894 285.986 283.894 282.341 C 283.894 268.094 274.507 260.97 255.732 260.97 L 233.498 260.97 C 223.944 260.97 218.096 262.627 215.954 265.94 C 213.813 269.253 212.742 276.377 212.742 287.311 L 212.742 318.132 C 212.742 323.433 212.907 330.557 213.237 339.503 C 213.567 350.437 213.732 357.726 213.732 361.371 C 214.061 374.629 216.697 382.912 221.64 386.221 C 225.263 388.545 233.826 389.707 247.329 389.707 L 314.523 389.707 C 333.958 389.707 347.298 386.807 354.544 381.006 C 361.791 375.205 365.414 364.353 365.414 348.449 C 365.414 343.479 365.167 336.106 364.675 326.329 C 364.178 316.557 363.929 309.186 363.929 304.216 C 363.929 289.301 369.78 281.844 381.481 281.844 C 393.827 281.844 400 289.467 400 304.713 C 400 310.677 399.752 319.789 399.255 332.048 C 398.762 344.307 398.516 353.419 398.516 359.383 C 398.516 364.022 398.762 370.898 399.255 380.012 C 399.752 389.126 400 396.002 400 400.641 C 400 416.214 392.424 424 377.272 424 C 373.649 424 367.885 423.622 359.979 422.866 C 356.026 422.488 348.78 422.299 338.241 422.299 C 340.544 422.299 327.699 421.919 299.703 421.158 C 271.703 420.402 247.494 420.024 227.074 420.024 C 196.111 420.024 165.807 421.184 136.163 423.503 C 134.844 423.503 133.362 423.669 131.717 424 C 130.068 424 129.079 424 128.749 424 C 114.916 424 108 418.036 108 406.108 C 108 395.505 113.105 390.204 123.315 390.204 C 124.964 390.204 129.411 390.535 136.657 391.198 C 140.28 392.192 143.739 392.689 147.032 392.689 C 163.833 392.689 172.233 380.262 172.233 355.407 Z " fill="rgb(235,237,239)"/></g></svg>
