<?xml version="1.0" encoding="UTF-8" standalone="no"?><svg xmlns="http://www.w3.org/2000/svg" xmlns:xlink="http://www.w3.org/1999/xlink" viewBox="0 0 640 98" width="640" height="98"><g><path d=" M 15.953 1 C 7.695 1 1 7.707 1 15.981 L 1 82.019 C 1 90.293 7.695 97 15.953 97 L 81.866 97 C 90.124 97 96.819 90.293 96.819 82.019 L 96.819 15.981 C 96.819 7.707 90.124 1 81.866 1 L 15.953 1 Z  M 119.49 38.985 C 124.534 38.985 128.304 40.951 130.801 44.884 L 130.801 37.147 C 130.801 35.105 130.75 33.854 130.648 33.394 C 130.393 31.811 129.68 31.019 128.508 31.019 C 128.101 31.019 127.528 31.108 126.789 31.287 C 126.05 31.466 125.477 31.556 125.069 31.556 C 123.184 31.556 122.241 30.726 122.241 29.066 C 122.241 27.355 123.515 26.5 126.062 26.5 C 126.47 26.5 127.209 26.551 128.279 26.653 C 129.909 26.807 130.75 26.884 130.801 26.884 C 131.259 26.884 131.921 26.82 132.787 26.691 C 133.653 26.564 134.316 26.5 134.775 26.5 C 136.201 26.5 136.914 27.523 136.914 29.569 L 136.914 30.413 C 136.863 30.566 136.812 31.922 136.761 34.478 C 136.761 34.785 136.685 36.754 136.532 40.386 C 136.43 42.943 136.379 44.887 136.379 46.217 L 136.379 66.548 C 136.431 69.924 136.587 72.02 136.847 72.839 C 137.106 73.657 137.728 74.066 138.714 74.066 C 139.388 74.066 139.907 74.028 140.27 73.951 C 141.1 73.875 141.671 73.837 141.983 73.837 C 143.902 73.837 144.862 74.666 144.862 76.326 C 144.862 78.036 143.716 78.891 141.423 78.891 C 140.914 78.891 140.137 78.828 139.092 78.7 C 138.048 78.573 137.271 78.509 136.761 78.509 C 136.609 78.509 136.023 78.56 135.004 78.662 C 134.392 78.815 133.857 78.891 133.399 78.891 C 132.023 78.891 131.335 77.972 131.335 76.134 L 131.335 74.449 C 128.643 78.074 124.73 79.887 119.598 79.887 C 114.415 79.887 110.248 77.998 107.098 74.219 C 103.947 70.441 102.372 65.488 102.372 59.36 C 102.372 53.181 103.926 48.24 107.034 44.538 C 110.142 40.836 114.294 38.985 119.49 38.985 Z  M 130.492 66.023 C 130.698 64.338 130.801 62.168 130.801 59.513 C 130.801 56.092 130.672 53.768 130.415 52.543 C 129.951 49.99 128.845 47.998 127.094 46.568 C 125.035 44.883 122.667 44.041 119.991 44.041 C 116.387 44.041 113.569 45.394 111.536 48.1 C 109.503 50.807 108.486 54.509 108.486 59.206 C 108.486 64.057 109.541 67.874 111.651 70.657 C 113.762 73.441 116.644 74.832 120.3 74.832 C 123.079 74.832 125.396 74.028 127.249 72.419 C 129.102 70.81 130.183 68.678 130.492 66.023 Z  M 159.917 42.625 L 159.917 44.806 C 162.974 40.926 167.049 38.985 172.144 38.985 C 174.895 38.985 177.494 39.687 179.939 41.091 C 182.385 42.496 184.041 44.245 184.907 46.338 C 185.62 48.075 185.977 50.347 185.977 53.156 L 185.977 67.709 C 185.977 69.904 186.002 71.206 186.053 71.615 C 186.308 73.351 186.995 74.219 188.116 74.219 C 188.575 74.219 189.174 74.155 189.913 74.028 C 190.651 73.9 191.173 73.837 191.479 73.837 C 192.142 73.837 192.715 74.066 193.198 74.525 C 193.683 74.985 193.925 75.547 193.925 76.21 C 193.925 76.977 193.619 77.616 193.007 78.126 C 192.396 78.636 191.657 78.891 190.791 78.891 C 190.078 78.891 188.907 78.789 187.276 78.585 C 185.646 78.381 184.117 78.279 182.69 78.279 C 181.366 78.279 180.271 78.33 179.405 78.432 C 176.857 78.738 175.507 78.891 175.355 78.891 C 173.316 78.891 172.297 77.998 172.297 76.21 C 172.297 74.628 173.18 73.837 174.947 73.837 C 175.362 73.837 175.83 73.888 176.349 73.99 C 177.336 74.194 177.959 74.296 178.219 74.296 C 179.466 74.296 180.141 72.891 180.245 70.083 L 180.245 55.682 C 180.245 52.976 180.118 51.113 179.864 50.091 C 179.407 48.151 178.418 46.645 176.895 45.572 C 175.221 44.398 173.318 43.81 171.186 43.81 C 167.126 43.81 164.208 45.266 162.431 48.177 C 161.213 50.168 160.604 53.563 160.604 58.363 L 160.604 68.551 C 160.604 70.798 160.757 72.33 161.064 73.147 C 161.369 73.964 161.929 74.372 162.745 74.372 C 163.152 74.372 163.712 74.283 164.426 74.104 C 165.139 73.926 165.725 73.837 166.184 73.837 C 167.763 73.837 168.552 74.692 168.552 76.402 C 168.552 78.061 167.533 78.891 165.496 78.891 C 165.088 78.891 163.764 78.738 161.522 78.432 C 160.401 78.278 159.153 78.202 157.777 78.202 C 156.707 78.202 155.281 78.304 153.498 78.509 C 151.256 78.764 149.982 78.891 149.677 78.891 C 147.537 78.891 146.467 78.023 146.467 76.287 C 146.467 74.653 147.298 73.837 148.958 73.837 C 149.217 73.837 149.697 73.913 150.397 74.066 C 151.098 74.219 151.786 74.296 152.46 74.296 C 154.017 74.296 154.822 72.815 154.873 69.853 L 154.873 49.403 C 154.769 47.666 154.549 46.479 154.212 45.841 C 153.874 45.203 153.29 44.884 152.46 44.884 C 152.097 44.884 151.565 44.96 150.865 45.113 C 150.164 45.266 149.632 45.343 149.269 45.343 C 147.401 45.343 146.467 44.513 146.467 42.854 C 146.467 41.143 147.613 40.287 149.906 40.287 C 150.212 40.287 150.467 40.312 150.67 40.363 L 153.498 40.67 C 154.313 40.67 155.026 40.607 155.638 40.479 C 156.962 40.351 157.65 40.287 157.701 40.287 C 159.178 40.287 159.917 41.066 159.917 42.625 Z  M 209.285 66.329 L 209.285 56.372 C 209.285 54.177 209.305 52.032 209.346 49.938 C 209.387 47.181 209.428 45.598 209.469 45.19 C 209.469 44.986 209.489 44.679 209.529 44.271 C 209.57 43.862 209.591 43.555 209.591 43.351 C 209.591 41.359 208.852 40.363 207.375 40.363 C 206.967 40.363 206.343 40.427 205.503 40.556 C 204.662 40.683 204.038 40.747 203.63 40.747 C 203.172 40.747 202.127 40.645 200.497 40.441 C 200.089 40.389 199.401 40.363 198.433 40.363 C 196.192 40.363 195.071 41.232 195.071 42.968 C 195.071 44.602 195.996 45.419 197.847 45.419 C 198.207 45.419 198.759 45.33 199.504 45.151 C 200.25 44.973 200.829 44.884 201.24 44.884 C 202.526 44.884 203.297 46.492 203.553 49.709 L 203.553 69.317 C 203.297 72.585 202.551 74.219 201.317 74.219 C 200.906 74.219 200.302 74.155 199.504 74.028 C 198.708 73.9 198.104 73.837 197.693 73.837 C 195.945 73.837 195.071 74.666 195.071 76.326 C 195.071 78.036 196.093 78.891 198.138 78.891 C 198.802 78.891 200.132 78.764 202.125 78.509 C 203.761 78.304 205.244 78.202 206.573 78.202 C 207.391 78.202 208.631 78.317 210.293 78.547 C 211.954 78.777 213.194 78.891 214.012 78.891 C 214.983 78.891 215.788 78.64 216.427 78.138 C 217.066 77.634 217.386 77.031 217.386 76.326 C 217.386 74.666 216.418 73.837 214.481 73.837 C 213.972 73.837 213.59 73.88 213.335 73.967 C 212.316 74.186 211.679 74.296 211.425 74.296 C 210.304 74.296 209.616 73.147 209.361 70.849 C 209.31 70.39 209.285 68.883 209.285 66.329 Z  M 205.311 36.304 C 204.139 36.304 203.133 35.883 202.292 35.041 C 201.452 34.198 201.031 33.189 201.031 32.015 C 201.031 30.84 201.452 29.845 202.292 29.028 C 203.133 28.211 204.139 27.803 205.311 27.803 C 206.483 27.803 207.489 28.211 208.33 29.028 C 209.171 29.845 209.591 30.84 209.591 32.015 C 209.591 33.189 209.171 34.198 208.33 35.041 C 207.489 35.883 206.483 36.304 205.311 36.304 Z  M 232.593 70.39 L 232.593 46.568 C 232.593 39.368 232.772 33.802 233.129 29.87 C 233.18 29.615 233.205 29.232 233.205 28.722 C 233.205 27.241 232.619 26.5 231.447 26.5 C 230.938 26.5 230.174 26.589 229.155 26.768 C 228.135 26.947 227.371 27.037 226.862 27.037 C 226.301 27.037 225.613 26.977 224.798 26.858 L 222.965 26.59 C 222.557 26.53 222.073 26.5 221.513 26.5 C 219.474 26.5 218.455 27.355 218.455 29.066 C 218.455 30.726 219.321 31.556 221.053 31.556 C 221.411 31.556 221.869 31.505 222.429 31.403 C 223.601 31.198 224.264 31.096 224.416 31.096 C 225.486 31.096 226.2 31.685 226.557 32.864 C 226.658 33.376 226.735 34.401 226.786 35.939 L 226.786 61.536 L 226.708 66.917 C 226.657 70.248 226.515 72.31 226.284 73.104 C 226.052 73.899 225.474 74.296 224.549 74.296 C 224.343 74.296 223.597 74.173 222.312 73.928 C 222.158 73.928 221.927 73.897 221.618 73.837 L 221.078 73.837 C 219.329 73.837 218.455 74.616 218.455 76.176 C 218.455 77.986 219.521 78.891 221.654 78.891 L 222.035 78.891 C 222.796 78.891 223.989 78.789 225.615 78.585 C 227.239 78.381 228.457 78.279 229.27 78.279 C 230.234 78.279 231.605 78.381 233.382 78.585 C 235.159 78.789 236.453 78.891 237.266 78.891 C 239.347 78.891 240.388 78.061 240.388 76.402 C 240.388 74.692 239.539 73.837 237.842 73.837 C 237.636 73.837 237.224 73.88 236.606 73.967 C 235.629 74.186 234.986 74.296 234.677 74.296 C 233.34 74.296 232.645 72.994 232.593 70.39 Z  M 260.286 38.985 C 263.688 38.985 266.532 39.879 268.817 41.666 L 268.817 41.36 C 268.817 39.47 269.632 38.525 271.262 38.525 C 272.943 38.525 273.784 39.342 273.784 40.977 C 273.784 41.283 273.742 42.049 273.657 43.275 C 273.487 44.296 273.402 45.317 273.402 46.338 C 273.402 46.951 273.466 47.845 273.593 49.019 C 273.72 50.194 273.784 51.087 273.784 51.7 C 273.784 53.64 272.956 54.61 271.301 54.61 C 269.695 54.61 268.867 53.794 268.817 52.16 L 268.817 49.632 C 268.766 48.1 267.883 46.785 266.168 45.687 C 264.454 44.59 262.445 44.041 260.142 44.041 C 257.788 44.041 255.817 44.641 254.231 45.841 C 252.645 47.041 251.852 48.535 251.852 50.322 C 251.852 53.59 254.101 55.53 258.598 56.143 L 263.045 56.756 C 271.733 57.93 276.077 61.53 276.077 67.556 C 276.077 71.232 274.68 74.207 271.886 76.479 C 269.092 78.751 265.435 79.887 260.913 79.887 C 256.697 79.887 253.04 78.687 249.941 76.287 L 249.941 77.743 C 249.941 79.581 249.074 80.5 247.342 80.5 C 245.457 80.5 244.515 79.453 244.515 77.36 C 244.515 77.717 244.668 76.389 244.973 73.376 C 245.076 72.662 245.127 71.947 245.127 71.232 C 245.127 70.007 245.025 68.858 244.82 67.785 C 244.617 66.713 244.515 65.87 244.515 65.257 C 244.515 63.47 245.33 62.576 246.96 62.576 C 248.03 62.576 248.705 62.832 248.986 63.343 C 249.266 63.853 249.432 65.206 249.482 67.402 C 249.533 69.598 250.68 71.385 252.922 72.763 C 255.163 74.143 258.016 74.832 261.48 74.832 C 263.977 74.832 266.04 74.194 267.671 72.917 C 269.301 71.64 270.116 70.032 270.116 68.091 C 270.116 64.619 267.365 62.602 261.862 62.041 C 256.615 61.479 252.615 60.445 249.864 58.938 C 247.113 57.432 245.738 54.79 245.738 51.01 C 245.738 47.436 247.083 44.538 249.774 42.317 C 252.466 40.096 255.969 38.985 260.286 38.985 Z  M 286.546 74.334 C 289.756 78.036 294.036 79.887 299.385 79.887 C 304.888 79.887 309.294 77.998 312.606 74.219 C 315.918 70.441 317.574 65.436 317.574 59.206 C 317.574 52.976 315.969 48.049 312.759 44.424 C 309.549 40.798 305.167 38.985 299.614 38.985 C 294.163 38.985 289.82 40.836 286.585 44.538 C 283.349 48.24 281.732 53.206 281.732 59.437 C 281.732 65.666 283.337 70.632 286.546 74.334 Z  M 291.373 47.794 C 293.417 45.292 296.228 44.041 299.805 44.041 C 307.575 44.041 311.46 49.147 311.46 59.36 C 311.46 64.211 310.399 68.002 308.278 70.734 C 306.157 73.466 303.231 74.832 299.499 74.832 C 295.87 74.832 293.046 73.466 291.027 70.734 C 289.008 68.002 287.998 64.237 287.998 59.437 L 287.998 58.441 C 288.203 53.845 289.327 50.296 291.373 47.794 Z  M 335.227 42.625 L 335.227 44.806 C 338.284 40.926 342.359 38.985 347.454 38.985 C 350.205 38.985 352.804 39.687 355.249 41.091 C 357.694 42.496 359.35 44.245 360.216 46.338 C 360.93 48.075 361.286 50.347 361.286 53.156 L 361.286 67.709 C 361.286 69.904 361.312 71.206 361.363 71.615 C 361.617 73.351 362.305 74.219 363.425 74.219 C 363.884 74.219 364.483 74.155 365.222 74.028 C 365.961 73.9 366.483 73.837 366.788 73.837 C 367.451 73.837 368.024 74.066 368.508 74.525 C 368.992 74.985 369.234 75.547 369.234 76.21 C 369.234 76.977 368.928 77.616 368.317 78.126 C 367.706 78.636 366.967 78.891 366.101 78.891 C 365.388 78.891 364.216 78.789 362.586 78.585 C 360.955 78.381 359.427 78.279 358 78.279 C 356.675 78.279 355.58 78.33 354.714 78.432 C 352.167 78.738 350.817 78.891 350.664 78.891 C 348.626 78.891 347.607 77.998 347.607 76.21 C 347.607 74.628 348.49 73.837 350.256 73.837 C 350.672 73.837 351.139 73.888 351.659 73.99 C 352.645 74.194 353.269 74.296 353.528 74.296 C 354.776 74.296 355.451 72.891 355.555 70.083 L 355.555 55.682 C 355.555 52.976 355.428 51.113 355.175 50.091 C 354.717 48.151 353.728 46.645 352.206 45.572 C 350.53 44.398 348.627 43.81 346.496 43.81 C 342.435 43.81 339.517 45.266 337.742 48.177 C 336.524 50.168 335.915 53.563 335.915 58.363 L 335.915 68.551 C 335.915 70.798 336.068 72.33 336.373 73.147 C 336.678 73.964 337.239 74.372 338.054 74.372 C 338.462 74.372 339.023 74.283 339.736 74.104 C 340.449 73.926 341.034 73.837 341.493 73.837 C 343.073 73.837 343.863 74.692 343.863 76.402 C 343.863 78.061 342.843 78.891 340.805 78.891 C 340.398 78.891 339.073 78.738 336.831 78.432 C 335.711 78.278 334.463 78.202 333.087 78.202 C 332.017 78.202 330.59 78.304 328.807 78.509 C 326.566 78.764 325.292 78.891 324.986 78.891 C 322.846 78.891 321.777 78.023 321.777 76.287 C 321.777 74.653 322.607 73.837 324.267 73.837 C 324.527 73.837 325.007 73.913 325.707 74.066 C 326.407 74.219 327.095 74.296 327.77 74.296 C 329.327 74.296 330.131 72.815 330.183 69.853 L 330.183 49.403 C 330.079 47.666 329.859 46.479 329.521 45.841 C 329.184 45.203 328.6 44.884 327.77 44.884 C 327.406 44.884 326.875 44.96 326.174 45.113 C 325.474 45.266 324.942 45.343 324.578 45.343 C 322.711 45.343 321.777 44.513 321.777 42.854 C 321.777 41.143 322.923 40.287 325.215 40.287 C 325.521 40.287 325.776 40.312 325.98 40.363 L 328.807 40.67 C 329.622 40.67 330.336 40.607 330.947 40.479 C 332.272 40.351 332.959 40.287 333.01 40.287 C 334.488 40.287 335.227 41.066 335.227 42.625 Z  M 423.722 52.155 C 426.015 51.645 427.9 51.034 429.378 50.322 C 433.249 48.49 435.185 45.054 435.185 40.016 C 435.185 31.465 429.581 27.19 418.372 27.19 C 416.742 27.19 414.959 27.241 413.023 27.343 L 407.215 27.649 C 405.28 27.751 403.522 27.803 401.942 27.803 C 400.414 27.803 399.14 27.751 398.121 27.649 L 394.224 27.266 C 393.714 27.215 393.357 27.19 393.154 27.19 C 390.912 27.19 389.792 28.07 389.792 29.83 C 389.792 30.484 390.021 31.05 390.479 31.528 C 390.938 32.005 391.498 32.244 392.16 32.244 C 392.568 32.244 393.179 32.193 393.995 32.091 C 394.81 31.989 395.421 31.938 395.828 31.938 C 398.427 31.938 399.726 33.853 399.726 37.684 L 399.726 68.398 C 399.726 72.228 398.427 74.143 395.828 74.143 C 395.319 74.143 394.784 74.066 394.224 73.913 C 393.103 73.811 392.415 73.76 392.16 73.76 C 390.581 73.76 389.792 74.577 389.792 76.21 C 389.792 78.049 390.887 78.968 393.077 78.968 C 393.026 78.968 393.409 78.917 394.224 78.815 L 397.892 78.356 C 399.93 78.1 401.713 77.972 403.242 77.972 C 404.464 77.972 405.865 78.075 407.444 78.279 L 411.571 78.815 L 412.718 78.968 C 414.908 78.968 416.003 78.075 416.003 76.289 C 416.003 74.603 415.188 73.76 413.559 73.76 C 413.1 73.76 412.437 73.806 411.571 73.897 C 411.215 73.959 410.68 73.99 409.966 73.99 C 407.878 73.99 406.604 72.708 406.145 70.144 C 406.044 69.631 405.993 67.478 405.993 63.685 L 405.993 57.763 C 405.993 55.763 406.804 54.763 408.428 54.763 L 415.508 54.763 C 419.567 54.763 422.244 55.314 423.539 56.416 C 424.833 57.517 425.48 59.784 425.48 63.217 L 425.48 69.824 C 425.48 75.92 428.486 78.968 434.498 78.968 C 437.453 78.968 439.758 78.138 441.414 76.479 C 443.07 74.819 443.898 72.509 443.898 69.547 C 443.898 68.934 443.923 68.474 443.974 68.168 L 443.974 62.576 C 444.025 61.504 444.05 60.942 444.05 60.891 C 444.05 58.747 443.133 57.675 441.299 57.675 C 440.127 57.675 439.337 58.105 438.93 58.964 C 438.726 59.521 438.625 60.532 438.625 61.999 L 438.625 67.234 C 438.625 71.585 437.44 73.76 435.071 73.76 C 432.752 73.76 431.593 71.928 431.593 68.262 L 431.593 63.835 C 431.593 59.967 431.026 57.193 429.891 55.514 C 428.755 53.834 426.699 52.714 423.722 52.155 Z  M 415.392 49.709 L 408.209 49.709 C 407.343 49.709 406.757 49.594 406.451 49.364 C 406.145 49.134 405.993 48.585 405.993 47.718 L 405.993 36.457 C 406.044 34.568 406.823 33.304 408.332 32.666 C 409.839 32.028 412.715 31.709 416.958 31.709 C 424.931 31.709 428.918 34.62 428.918 40.441 C 428.918 43.913 427.619 46.389 425.021 47.871 C 422.881 49.096 419.672 49.709 415.392 49.709 Z  M 465.753 79.887 C 460.404 79.887 456.125 78.036 452.915 74.334 C 449.706 70.632 448.101 65.666 448.101 59.437 C 448.101 53.206 449.718 48.24 452.954 44.538 C 456.188 40.836 460.532 38.985 465.983 38.985 C 471.536 38.985 475.918 40.798 479.128 44.424 C 482.337 48.049 483.942 52.976 483.942 59.206 C 483.942 65.436 482.286 70.441 478.974 74.219 C 475.663 77.998 471.256 79.887 465.753 79.887 Z  M 466.174 44.041 C 462.596 44.041 459.785 45.292 457.74 47.794 C 455.696 50.296 454.572 53.845 454.367 58.441 L 454.367 59.437 C 454.367 64.237 455.377 68.002 457.396 70.734 C 459.415 73.466 462.239 74.832 465.868 74.832 C 469.599 74.832 472.525 73.466 474.647 70.734 C 476.767 68.002 477.828 64.211 477.828 59.36 C 477.828 49.147 473.943 44.041 466.174 44.041 Z  M 499.914 29.717 L 499.914 28.644 C 499.914 27.215 499.353 26.5 498.233 26.5 C 497.723 26.5 496.958 26.589 495.94 26.768 C 494.921 26.947 494.131 27.037 493.57 27.037 C 493.061 27.037 492.399 26.977 491.584 26.858 L 489.75 26.59 C 489.342 26.53 488.833 26.5 488.221 26.5 C 486.183 26.5 485.165 27.355 485.165 29.066 C 485.165 30.726 486.031 31.556 487.763 31.556 C 488.17 31.556 488.654 31.505 489.215 31.403 C 490.386 31.198 491.049 31.096 491.202 31.096 C 492.017 31.096 492.59 31.428 492.921 32.091 C 493.252 32.755 493.443 34.032 493.494 35.922 L 493.494 64.109 L 493.036 70.006 C 493.061 71.334 493.074 72.586 493.074 73.76 C 493.1 74.117 493.112 74.653 493.112 75.368 C 493.112 77.922 494.004 79.198 495.787 79.198 C 497.57 79.198 498.462 78.279 498.462 76.441 C 498.462 76.287 498.36 75.47 498.156 73.99 C 500.5 77.921 504.296 79.887 509.543 79.887 C 514.944 79.887 519.236 77.959 522.419 74.104 C 525.604 70.249 527.196 65.079 527.196 58.594 C 527.196 52.67 525.689 47.922 522.675 44.347 C 519.661 40.773 515.599 38.985 510.491 38.985 C 507.937 38.985 505.817 39.419 504.131 40.287 C 502.445 41.155 500.785 42.662 499.15 44.806 C 499.206 38.985 499.461 33.956 499.914 29.717 Z  M 499.15 58.823 C 499.15 55.862 499.33 53.564 499.69 51.929 C 500.205 49.683 501.441 47.807 503.397 46.3 C 505.354 44.794 507.542 44.041 509.961 44.041 C 513.411 44.041 516.126 45.407 518.109 48.138 C 520.091 50.87 521.082 54.637 521.082 59.437 C 521.082 64.134 520.04 67.874 517.955 70.657 C 515.869 73.441 513.05 74.832 509.498 74.832 C 505.019 74.832 501.981 72.968 500.385 69.241 C 499.562 67.351 499.15 63.879 499.15 58.823 Z  M 567.699 56.004 C 567.699 57.938 567.572 59.121 567.317 59.554 C 567.061 59.986 566.32 60.203 565.094 60.203 L 540.727 60.203 C 540.063 60.203 539.629 60.292 539.424 60.472 C 539.22 60.652 539.118 60.947 539.118 61.357 C 539.118 65.207 540.267 68.415 542.566 70.983 C 544.865 73.549 547.726 74.832 551.148 74.832 C 553.396 74.832 555.453 74.22 557.317 72.994 C 559.182 71.769 560.395 70.211 560.958 68.322 L 561.647 66.1 C 562.005 64.875 562.848 64.262 564.176 64.262 C 566.066 64.262 567.011 65.232 567.011 67.172 C 567.011 70.492 565.33 73.441 561.967 76.019 C 558.605 78.598 554.784 79.887 550.505 79.887 C 545.155 79.887 540.901 78.087 537.742 74.487 C 534.583 70.887 533.004 66.049 533.004 59.972 C 533.004 53.743 534.685 48.687 538.048 44.806 C 541.41 40.926 545.792 38.985 551.192 38.985 C 555.981 38.985 559.93 40.588 563.037 43.794 C 566.145 46.999 567.699 51.069 567.699 56.004 Z  M 539.959 54.075 C 539.959 54.79 540.521 55.147 541.645 55.147 L 559.975 55.147 C 561.049 55.147 561.585 54.79 561.585 54.075 C 561.585 51.368 560.563 49.019 558.518 47.028 C 556.473 45.037 554.07 44.041 551.309 44.041 C 548.445 44.041 545.838 45.075 543.487 47.143 C 541.135 49.21 539.959 51.521 539.959 54.075 Z  M 584.894 44.577 L 584.894 42.472 C 584.894 41.015 584.232 40.287 582.907 40.287 C 582.347 40.287 581.863 40.351 581.455 40.479 C 580.538 40.607 579.876 40.67 579.468 40.67 C 578.959 40.67 578.194 40.607 577.175 40.479 C 576.157 40.351 575.392 40.287 574.882 40.287 C 572.692 40.287 571.597 41.167 571.597 42.928 C 571.597 44.538 572.438 45.343 574.119 45.343 C 574.526 45.343 575.087 45.279 575.8 45.151 C 576.513 45.024 577.074 44.96 577.481 44.96 C 578.857 44.96 579.621 46.466 579.774 49.479 L 580.003 66.866 L 580.003 70.772 C 579.9 73.121 579.206 74.296 577.921 74.296 C 577.715 74.296 577.355 74.245 576.841 74.143 L 575.684 73.913 C 575.427 73.862 575.041 73.837 574.528 73.837 C 572.574 73.837 571.597 74.628 571.597 76.21 C 571.597 77.998 572.641 78.891 574.73 78.891 L 579.009 78.509 C 580.181 78.407 581.786 78.356 583.824 78.356 C 584.588 78.356 585.748 78.445 587.302 78.624 C 588.855 78.802 590.014 78.891 590.778 78.891 L 591.085 78.891 C 593.173 78.891 594.217 78.011 594.217 76.251 C 594.217 74.641 593.395 73.837 591.749 73.837 C 591.338 73.837 590.85 73.902 590.284 74.033 C 589.564 74.208 588.871 74.296 588.202 74.296 C 586.866 74.296 586.069 72.84 585.811 69.93 C 585.761 69.521 585.735 67.607 585.735 64.185 L 585.735 59.129 C 585.735 54.687 586.142 51.368 586.957 49.172 C 588.282 45.598 590.931 43.81 594.905 43.81 C 596.841 43.81 598.459 44.321 599.758 45.343 C 601.057 46.364 601.707 47.615 601.707 49.096 C 601.707 49.606 601.554 50.168 601.248 50.781 C 600.739 50.628 600.408 50.551 600.255 50.551 C 599.44 50.551 598.726 50.87 598.115 51.509 C 597.503 52.147 597.197 52.874 597.197 53.691 C 597.197 54.713 597.605 55.581 598.42 56.296 C 599.236 57.01 600.229 57.368 601.4 57.368 C 603.234 57.368 604.712 56.666 605.834 55.262 C 606.954 53.858 607.514 52.032 607.514 49.785 C 607.514 46.619 606.406 44.028 604.19 42.01 C 601.974 39.994 599.083 38.985 595.517 38.985 C 591.084 38.985 587.543 40.849 584.894 44.577 Z  M 633.574 68.015 L 633.574 63.113 C 633.625 61.019 634.542 59.972 636.325 59.972 C 638.108 59.972 639 61.147 639 63.496 C 639 69.061 638.291 72.942 636.874 75.138 C 634.952 78.1 631.79 79.581 627.387 79.581 C 623.34 79.581 620.456 78.279 618.735 75.675 C 617.47 73.786 616.838 70.568 616.838 66.023 L 616.838 47.641 C 616.838 46.568 616.343 46.032 615.353 46.032 L 612.852 46.032 C 612.018 46.032 611.328 45.764 610.781 45.228 C 610.234 44.692 609.96 44.041 609.96 43.275 C 609.96 42.56 610.227 41.922 610.762 41.36 C 611.297 40.798 611.896 40.517 612.558 40.517 L 615.539 40.517 C 616.405 40.517 616.838 40.032 616.838 39.062 L 616.838 31.172 C 616.838 29.232 617.831 28.262 619.818 28.262 C 621.652 28.262 622.569 29.232 622.569 31.172 L 622.569 39.368 C 622.569 40.134 623.028 40.517 623.946 40.517 L 632.275 40.517 C 634.211 40.517 635.179 41.411 635.179 43.198 C 635.179 45.088 634.135 46.032 632.046 46.032 L 623.639 46.032 C 622.926 46.032 622.569 46.568 622.569 47.641 L 622.569 66.483 C 622.569 71.844 624.352 74.525 627.917 74.525 C 631.534 74.525 633.419 72.355 633.574 68.015 Z " fill-rule="evenodd" fill="rgb(0,70,94)"/><path d=" M 33.233 67.639 L 33.233 30.268 C 33.233 25.67 31.661 23.371 28.517 23.371 C 27.653 23.371 27.006 23.433 26.575 23.558 C 25.588 23.745 24.756 23.838 24.078 23.838 C 23.276 23.838 22.598 23.543 22.044 22.952 C 21.489 22.361 21.212 21.631 21.212 20.761 C 21.212 18.587 22.502 17.5 25.082 17.5 C 25.144 17.5 25.604 17.531 26.464 17.593 C 35.679 18.214 39.979 18.525 39.364 18.525 C 39.979 18.525 40.286 18.525 40.286 18.525 L 62.493 17.873 C 62.924 17.873 64.521 17.779 67.285 17.593 C 68.268 17.531 69.159 17.5 69.957 17.5 C 73.152 17.5 74.749 18.929 74.749 21.786 C 74.749 22.283 74.661 23.868 74.484 26.54 C 74.352 28.528 74.286 30.361 74.286 32.038 C 74.286 34.213 74.338 35.735 74.441 36.605 C 74.646 38.407 74.749 39.743 74.749 40.613 C 74.749 42.974 73.639 44.154 71.42 44.154 C 69.201 44.154 68.091 42.5 68.091 39.192 L 68.091 34.322 C 68.091 29.079 67.016 25.99 64.866 25.053 C 63.269 24.366 59.153 24.023 52.518 24.023 C 48.156 24.023 45.576 24.118 44.777 24.308 C 42.135 25.002 40.814 26.895 40.814 29.988 L 40.814 34.182 C 40.814 34.679 40.814 35.362 40.814 36.232 C 40.814 37.102 40.814 37.723 40.814 38.096 L 40.814 39.308 C 40.814 41.793 41.361 43.222 42.456 43.595 C 42.882 43.719 43.611 43.781 44.645 43.781 L 48.383 43.781 C 52.214 43.781 54.13 42.445 54.13 39.773 C 54.13 39.027 54.052 38.065 53.898 36.884 C 53.744 35.704 53.667 34.648 53.667 33.716 C 53.667 31.231 54.761 29.988 56.949 29.988 C 59.138 29.988 60.232 31.324 60.232 33.995 C 60.232 34.492 60.033 36.418 59.635 39.773 C 59.293 42.632 59.123 45.148 59.123 47.322 C 59.123 48.565 59.246 50.77 59.492 53.939 C 59.553 54.436 59.708 55.523 59.954 57.202 C 60.14 58.568 60.232 59.656 60.232 60.463 C 60.232 62.7 59.123 63.818 56.903 63.818 C 54.746 63.818 53.667 62.513 53.667 59.904 C 53.667 59.221 53.744 58.227 53.898 56.922 C 54.052 55.617 54.13 54.622 54.13 53.939 C 54.13 51.267 52.373 49.932 48.859 49.932 L 44.698 49.932 C 42.91 49.932 41.816 50.242 41.415 50.864 C 41.014 51.485 40.814 52.821 40.814 54.871 L 40.814 60.65 C 40.814 61.644 40.845 62.979 40.907 64.657 C 40.968 66.707 40.999 68.074 40.999 68.757 C 41.061 71.243 41.554 72.796 42.479 73.416 C 43.157 73.852 44.76 74.07 47.287 74.07 L 59.862 74.07 C 63.499 74.07 65.996 73.526 67.352 72.438 C 68.708 71.351 69.386 69.316 69.386 66.334 C 69.386 65.402 69.34 64.02 69.248 62.187 C 69.155 60.354 69.108 58.972 69.108 58.04 C 69.108 55.244 70.203 53.846 72.393 53.846 C 74.703 53.846 75.859 55.275 75.859 58.133 C 75.859 59.252 75.812 60.96 75.719 63.259 C 75.627 65.557 75.581 67.266 75.581 68.384 C 75.581 69.254 75.627 70.543 75.719 72.252 C 75.812 73.961 75.859 75.25 75.859 76.12 C 75.859 79.04 74.441 80.5 71.605 80.5 C 70.927 80.5 69.848 80.429 68.369 80.287 C 67.629 80.216 66.273 80.181 64.301 80.181 C 64.732 80.181 62.328 80.11 57.088 79.967 C 51.848 79.825 47.318 79.754 43.496 79.754 C 37.701 79.754 32.03 79.972 26.482 80.407 C 26.235 80.407 25.958 80.438 25.65 80.5 C 25.342 80.5 25.157 80.5 25.095 80.5 C 22.506 80.5 21.212 79.382 21.212 77.145 C 21.212 75.157 22.167 74.163 24.078 74.163 C 24.386 74.163 25.219 74.225 26.575 74.349 C 27.253 74.536 27.9 74.629 28.517 74.629 C 31.661 74.629 33.233 72.299 33.233 67.639 Z " fill="rgb(235,237,239)"/></g></svg>
