<?xml version="1.0" encoding="UTF-8" standalone="no"?><svg xmlns="http://www.w3.org/2000/svg" xmlns:xlink="http://www.w3.org/1999/xlink" viewBox="0 0 1920 1080" preserveAspectRatio="none"><g><path d=" M 0 0 L 1920 0 L 1920 1080 L 0 1080 L 0 0 Z " fill="rgb(215,219,223)"/><path d=" M 1920 1080 L 1920 648 C 1802.84 652.664 1767.49 727.51 1660.53 765.776 C 1559.98 801.745 1477.57 788.673 1389.38 841.299 C 1279.2 907.042 1436.29 990.487 1344 1080 L 1920 1080 Z " fill="rgb(141,201,189)"/><path d=" M 1618.04 846.693 C 1802.25 790.037 1839.7 779.712 1920 728.016 L 1920 1080 L 1574.4 1080 C 1509.24 1017.07 1438.26 901.985 1618.04 846.693 Z " fill="rgb(46,181,177)"/><path d=" M 1703.56 941.095 C 1892.07 889.398 1804.8 856.133 1920 830.51 L 1920 1080 L 1487.13 1080 C 1522.03 997.286 1626.16 962.32 1703.56 941.095 Z " fill="rgb(53,74,96)"/><path d=" M 0 0 L 768 0 C 644.399 66.15 628.197 177.526 530.151 228.6 C 437.991 276.606 306.193 233.713 281.6 329.4 C 265.548 391.855 216.234 443.42 133.602 484.047 C 44.887 527.668 93.6 583.2 0 648 L 0 0 Z " fill="rgb(238,142,104)"/><path d=" M 0 0 L 569.6 0 C 572.401 82.35 489.308 138.316 412.358 158.785 C 199.801 215.326 272.198 296.806 190.401 372.6 C 100.801 455.626 69.001 434.024 0 536.399 L 0 0 Z " fill="rgb(240,100,77)"/><path d=" M 0 0 L 425.6 0 C 349.2 98.55 258.483 80.786 153.6 135 C 64.8 180.9 173.999 328.05 0 403.2 L 0 0 Z " fill="rgb(53,74,96)"/></g></svg>
